<svg xmlns="http://www.w3.org/2000/svg" xmlns:xlink="http://www.w3.org/1999/xlink" width="500" zoomAndPan="magnify" viewBox="0 0 375 374.999991" height="500" preserveAspectRatio="xMidYMid meet" version="1.0"><defs><g/><clipPath id="75d278c4dd"><path d="M 30.34375 138.71875 L 112.84375 138.71875 L 112.84375 225.71875 L 30.34375 225.71875 Z M 30.34375 138.71875 " clip-rule="nonzero"/></clipPath></defs><g clip-path="url(#75d278c4dd)"><path fill="#081735" d="M 52.609375 205.207031 L 52.609375 172.105469 L 71.660156 172.105469 L 71.660156 187.480469 L 95.828125 165.023438 L 127.644531 194.601562 L 127.644531 138.773438 L 30.34375 138.773438 L 30.34375 225.875 Z M 52.609375 205.207031 " fill-opacity="1" fill-rule="nonzero"/></g><g fill="#081735" fill-opacity="1"><g transform="translate(60.434386, 214.478307)"><g><path d="M 2.78125 9.4375 L 2.78125 -21.28125 L 7.6875 -21.28125 L 8.28125 -18.234375 C 8.96875 -19.179688 9.875 -20.007812 11 -20.71875 C 12.132812 -21.4375 13.601562 -21.796875 15.40625 -21.796875 C 17.40625 -21.796875 19.191406 -21.304688 20.765625 -20.328125 C 22.335938 -19.359375 23.582031 -18.03125 24.5 -16.34375 C 25.414062 -14.65625 25.875 -12.738281 25.875 -10.59375 C 25.875 -8.445312 25.414062 -6.535156 24.5 -4.859375 C 23.582031 -3.191406 22.335938 -1.878906 20.765625 -0.921875 C 19.191406 0.0351562 17.40625 0.515625 15.40625 0.515625 C 13.800781 0.515625 12.394531 0.21875 11.1875 -0.375 C 9.988281 -0.976562 9.019531 -1.828125 8.28125 -2.921875 L 8.28125 9.4375 Z M 14.25 -4.296875 C 15.988281 -4.296875 17.429688 -4.878906 18.578125 -6.046875 C 19.722656 -7.222656 20.296875 -8.738281 20.296875 -10.59375 C 20.296875 -12.457031 19.722656 -13.988281 18.578125 -15.1875 C 17.429688 -16.382812 15.988281 -16.984375 14.25 -16.984375 C 12.46875 -16.984375 11.007812 -16.390625 9.875 -15.203125 C 8.75 -14.015625 8.1875 -12.492188 8.1875 -10.640625 C 8.1875 -8.785156 8.75 -7.265625 9.875 -6.078125 C 11.007812 -4.890625 12.46875 -4.296875 14.25 -4.296875 Z M 14.25 -4.296875 "/></g></g></g><g fill="#081735" fill-opacity="1"><g transform="translate(87.162324, 214.478307)"><g><path d="M 10.765625 0.515625 C 8.109375 0.515625 6.054688 -0.3125 4.609375 -1.96875 C 3.171875 -3.632812 2.453125 -6.066406 2.453125 -9.265625 L 2.453125 -21.28125 L 7.890625 -21.28125 L 7.890625 -9.78125 C 7.890625 -7.945312 8.257812 -6.546875 9 -5.578125 C 9.75 -4.609375 10.925781 -4.125 12.53125 -4.125 C 14.039062 -4.125 15.289062 -4.664062 16.28125 -5.75 C 17.269531 -6.832031 17.765625 -8.347656 17.765625 -10.296875 L 17.765625 -21.28125 L 23.25 -21.28125 L 23.25 0 L 18.40625 0 L 17.984375 -3.609375 C 17.316406 -2.347656 16.363281 -1.34375 15.125 -0.59375 C 13.882812 0.144531 12.429688 0.515625 10.765625 0.515625 Z M 10.765625 0.515625 "/></g></g></g><g fill="#081735" fill-opacity="1"><g transform="translate(112.002571, 214.478307)"><g><path d="M 2.78125 0 L 2.78125 -21.28125 L 7.6875 -21.28125 L 8.1875 -17.296875 C 8.96875 -18.660156 10.019531 -19.75 11.34375 -20.5625 C 12.675781 -21.382812 14.242188 -21.796875 16.046875 -21.796875 L 16.046875 -16 L 14.5 -16 C 13.300781 -16 12.226562 -15.8125 11.28125 -15.4375 C 10.34375 -15.070312 9.609375 -14.429688 9.078125 -13.515625 C 8.546875 -12.597656 8.28125 -11.328125 8.28125 -9.703125 L 8.28125 0 Z M 2.78125 0 "/></g></g></g><g fill="#081735" fill-opacity="1"><g transform="translate(127.747523, 214.478307)"><g><path d="M 6.953125 0 L 0.734375 -21.28125 L 6.171875 -21.28125 L 9.875 -5.96875 L 14.15625 -21.28125 L 20.25 -21.28125 L 24.546875 -5.96875 L 28.28125 -21.28125 L 33.71875 -21.28125 L 27.453125 0 L 21.75 0 L 17.203125 -15.921875 L 12.65625 0 Z M 6.953125 0 "/></g></g></g><g fill="#081735" fill-opacity="1"><g transform="translate(159.838116, 214.478307)"><g><path d="M 10.125 0.515625 C 8.289062 0.515625 6.785156 0.222656 5.609375 -0.359375 C 4.441406 -0.953125 3.570312 -1.734375 3 -2.703125 C 2.425781 -3.671875 2.140625 -4.742188 2.140625 -5.921875 C 2.140625 -7.890625 2.910156 -9.488281 4.453125 -10.71875 C 6.003906 -11.957031 8.320312 -12.578125 11.40625 -12.578125 L 16.8125 -12.578125 L 16.8125 -13.09375 C 16.8125 -14.550781 16.394531 -15.617188 15.5625 -16.296875 C 14.738281 -16.984375 13.710938 -17.328125 12.484375 -17.328125 C 11.367188 -17.328125 10.394531 -17.0625 9.5625 -16.53125 C 8.738281 -16.007812 8.226562 -15.234375 8.03125 -14.203125 L 2.65625 -14.203125 C 2.800781 -15.742188 3.320312 -17.085938 4.21875 -18.234375 C 5.125 -19.378906 6.289062 -20.257812 7.71875 -20.875 C 9.15625 -21.488281 10.757812 -21.796875 12.53125 -21.796875 C 15.5625 -21.796875 17.945312 -21.035156 19.6875 -19.515625 C 21.4375 -18.003906 22.3125 -15.863281 22.3125 -13.09375 L 22.3125 0 L 17.640625 0 L 17.125 -3.4375 C 16.488281 -2.289062 15.601562 -1.34375 14.46875 -0.59375 C 13.34375 0.144531 11.894531 0.515625 10.125 0.515625 Z M 11.375 -3.78125 C 12.945312 -3.78125 14.164062 -4.289062 15.03125 -5.3125 C 15.90625 -6.34375 16.457031 -7.617188 16.6875 -9.140625 L 12.015625 -9.140625 C 10.554688 -9.140625 9.507812 -8.875 8.875 -8.34375 C 8.25 -7.8125 7.9375 -7.160156 7.9375 -6.390625 C 7.9375 -5.566406 8.25 -4.925781 8.875 -4.46875 C 9.507812 -4.007812 10.34375 -3.78125 11.375 -3.78125 Z M 11.375 -3.78125 "/></g></g></g><g fill="#ef3914" fill-opacity="1"><g transform="translate(182.905276, 214.479214)"><g><path d="M 12.578125 0.515625 C 10.566406 0.515625 8.773438 0.03125 7.203125 -0.9375 C 5.628906 -1.914062 4.382812 -3.25 3.46875 -4.9375 C 2.5625 -6.625 2.109375 -8.539062 2.109375 -10.6875 C 2.109375 -12.832031 2.5625 -14.738281 3.46875 -16.40625 C 4.382812 -18.082031 5.628906 -19.398438 7.203125 -20.359375 C 8.773438 -21.316406 10.566406 -21.796875 12.578125 -21.796875 C 14.171875 -21.796875 15.566406 -21.492188 16.765625 -20.890625 C 17.972656 -20.296875 18.945312 -19.453125 19.6875 -18.359375 L 19.6875 -30.890625 L 25.1875 -30.890625 L 25.1875 0 L 20.296875 0 L 19.6875 -3.046875 C 19.007812 -2.097656 18.101562 -1.265625 16.96875 -0.546875 C 15.84375 0.160156 14.378906 0.515625 12.578125 0.515625 Z M 13.734375 -4.296875 C 15.503906 -4.296875 16.953125 -4.890625 18.078125 -6.078125 C 19.210938 -7.265625 19.78125 -8.785156 19.78125 -10.640625 C 19.78125 -12.492188 19.210938 -14.015625 18.078125 -15.203125 C 16.953125 -16.390625 15.503906 -16.984375 13.734375 -16.984375 C 11.984375 -16.984375 10.535156 -16.394531 9.390625 -15.21875 C 8.253906 -14.050781 7.6875 -12.539062 7.6875 -10.6875 C 7.6875 -8.820312 8.253906 -7.289062 9.390625 -6.09375 C 10.535156 -4.894531 11.984375 -4.296875 13.734375 -4.296875 Z M 13.734375 -4.296875 "/></g></g></g><g fill="#ef3914" fill-opacity="1"><g transform="translate(209.62589, 214.479214)"><g><path d="M 10.125 0.515625 C 8.289062 0.515625 6.785156 0.222656 5.609375 -0.359375 C 4.441406 -0.953125 3.570312 -1.734375 3 -2.703125 C 2.425781 -3.671875 2.140625 -4.742188 2.140625 -5.921875 C 2.140625 -7.890625 2.910156 -9.488281 4.453125 -10.71875 C 6.003906 -11.957031 8.320312 -12.578125 11.40625 -12.578125 L 16.8125 -12.578125 L 16.8125 -13.09375 C 16.8125 -14.550781 16.394531 -15.617188 15.5625 -16.296875 C 14.738281 -16.984375 13.710938 -17.328125 12.484375 -17.328125 C 11.367188 -17.328125 10.394531 -17.0625 9.5625 -16.53125 C 8.738281 -16.007812 8.226562 -15.234375 8.03125 -14.203125 L 2.65625 -14.203125 C 2.800781 -15.742188 3.320312 -17.085938 4.21875 -18.234375 C 5.125 -19.378906 6.289062 -20.257812 7.71875 -20.875 C 9.15625 -21.488281 10.757812 -21.796875 12.53125 -21.796875 C 15.5625 -21.796875 17.945312 -21.035156 19.6875 -19.515625 C 21.4375 -18.003906 22.3125 -15.863281 22.3125 -13.09375 L 22.3125 0 L 17.640625 0 L 17.125 -3.4375 C 16.488281 -2.289062 15.601562 -1.34375 14.46875 -0.59375 C 13.34375 0.144531 11.894531 0.515625 10.125 0.515625 Z M 11.375 -3.78125 C 12.945312 -3.78125 14.164062 -4.289062 15.03125 -5.3125 C 15.90625 -6.34375 16.457031 -7.617188 16.6875 -9.140625 L 12.015625 -9.140625 C 10.554688 -9.140625 9.507812 -8.875 8.875 -8.34375 C 8.25 -7.8125 7.9375 -7.160156 7.9375 -6.390625 C 7.9375 -5.566406 8.25 -4.925781 8.875 -4.46875 C 9.507812 -4.007812 10.34375 -3.78125 11.375 -3.78125 Z M 11.375 -3.78125 "/></g></g></g><g fill="#ef3914" fill-opacity="1"><g transform="translate(233.129707, 214.479214)"><g><path d="M 2.78125 0 L 2.78125 -30.890625 L 8.28125 -30.890625 L 8.28125 -12.65625 L 15.828125 -21.28125 L 22.359375 -21.28125 L 13.640625 -11.578125 L 23.765625 0 L 16.90625 0 L 8.28125 -10.6875 L 8.28125 0 Z M 2.78125 0 "/></g></g></g><g fill="#ef3914" fill-opacity="1"><g transform="translate(255.217902, 214.479214)"><g><path d="M 11.578125 0.515625 C 9.691406 0.515625 8.035156 0.207031 6.609375 -0.40625 C 5.179688 -1.019531 4.035156 -1.867188 3.171875 -2.953125 C 2.316406 -4.046875 1.800781 -5.304688 1.625 -6.734375 L 7.171875 -6.734375 C 7.335938 -5.898438 7.800781 -5.191406 8.5625 -4.609375 C 9.320312 -4.023438 10.300781 -3.734375 11.5 -3.734375 C 12.695312 -3.734375 13.570312 -3.972656 14.125 -4.453125 C 14.6875 -4.941406 14.96875 -5.503906 14.96875 -6.140625 C 14.96875 -7.054688 14.566406 -7.675781 13.765625 -8 C 12.972656 -8.332031 11.859375 -8.65625 10.421875 -8.96875 C 9.503906 -9.164062 8.570312 -9.40625 7.625 -9.6875 C 6.6875 -9.976562 5.820312 -10.34375 5.03125 -10.78125 C 4.25 -11.226562 3.613281 -11.800781 3.125 -12.5 C 2.644531 -13.207031 2.40625 -14.078125 2.40625 -15.109375 C 2.40625 -16.992188 3.15625 -18.578125 4.65625 -19.859375 C 6.15625 -21.148438 8.265625 -21.796875 10.984375 -21.796875 C 13.503906 -21.796875 15.515625 -21.207031 17.015625 -20.03125 C 18.515625 -18.863281 19.40625 -17.25 19.6875 -15.1875 L 14.5 -15.1875 C 14.1875 -16.757812 13 -17.546875 10.9375 -17.546875 C 9.90625 -17.546875 9.109375 -17.34375 8.546875 -16.9375 C 7.992188 -16.539062 7.71875 -16.046875 7.71875 -15.453125 C 7.71875 -14.816406 8.132812 -14.3125 8.96875 -13.9375 C 9.800781 -13.570312 10.898438 -13.234375 12.265625 -12.921875 C 13.753906 -12.578125 15.117188 -12.195312 16.359375 -11.78125 C 17.609375 -11.363281 18.601562 -10.742188 19.34375 -9.921875 C 20.09375 -9.109375 20.46875 -7.945312 20.46875 -6.4375 C 20.5 -5.125 20.15625 -3.9375 19.4375 -2.875 C 18.71875 -1.8125 17.6875 -0.976562 16.34375 -0.375 C 15 0.21875 13.410156 0.515625 11.578125 0.515625 Z M 11.578125 0.515625 "/></g></g></g><g fill="#ef3914" fill-opacity="1"><g transform="translate(276.491403, 214.479214)"><g><path d="M 5.75 -24.578125 C 4.75 -24.578125 3.925781 -24.878906 3.28125 -25.484375 C 2.632812 -26.085938 2.3125 -26.847656 2.3125 -27.765625 C 2.3125 -28.679688 2.632812 -29.429688 3.28125 -30.015625 C 3.925781 -30.597656 4.75 -30.890625 5.75 -30.890625 C 6.75 -30.890625 7.570312 -30.597656 8.21875 -30.015625 C 8.863281 -29.429688 9.1875 -28.679688 9.1875 -27.765625 C 9.1875 -26.847656 8.863281 -26.085938 8.21875 -25.484375 C 7.570312 -24.878906 6.75 -24.578125 5.75 -24.578125 Z M 3 0 L 3 -21.28125 L 8.5 -21.28125 L 8.5 0 Z M 3 0 "/></g></g></g><g fill="#ef3914" fill-opacity="1"><g transform="translate(286.699109, 214.479214)"><g><path d="M 2.78125 0 L 2.78125 -21.28125 L 7.640625 -21.28125 L 8.0625 -17.671875 C 8.71875 -18.929688 9.664062 -19.929688 10.90625 -20.671875 C 12.15625 -21.421875 13.625 -21.796875 15.3125 -21.796875 C 17.945312 -21.796875 19.992188 -20.960938 21.453125 -19.296875 C 22.910156 -17.640625 23.640625 -15.210938 23.640625 -12.015625 L 23.640625 0 L 18.15625 0 L 18.15625 -11.5 C 18.15625 -13.332031 17.78125 -14.734375 17.03125 -15.703125 C 16.289062 -16.671875 15.132812 -17.15625 13.5625 -17.15625 C 12.007812 -17.15625 10.738281 -16.613281 9.75 -15.53125 C 8.769531 -14.445312 8.28125 -12.929688 8.28125 -10.984375 L 8.28125 0 Z M 2.78125 0 "/></g></g></g><g fill="#ef3914" fill-opacity="1"><g transform="translate(311.532535, 214.479214)"><g><path d="M 10.125 0.515625 C 8.289062 0.515625 6.785156 0.222656 5.609375 -0.359375 C 4.441406 -0.953125 3.570312 -1.734375 3 -2.703125 C 2.425781 -3.671875 2.140625 -4.742188 2.140625 -5.921875 C 2.140625 -7.890625 2.910156 -9.488281 4.453125 -10.71875 C 6.003906 -11.957031 8.320312 -12.578125 11.40625 -12.578125 L 16.8125 -12.578125 L 16.8125 -13.09375 C 16.8125 -14.550781 16.394531 -15.617188 15.5625 -16.296875 C 14.738281 -16.984375 13.710938 -17.328125 12.484375 -17.328125 C 11.367188 -17.328125 10.394531 -17.0625 9.5625 -16.53125 C 8.738281 -16.007812 8.226562 -15.234375 8.03125 -14.203125 L 2.65625 -14.203125 C 2.800781 -15.742188 3.320312 -17.085938 4.21875 -18.234375 C 5.125 -19.378906 6.289062 -20.257812 7.71875 -20.875 C 9.15625 -21.488281 10.757812 -21.796875 12.53125 -21.796875 C 15.5625 -21.796875 17.945312 -21.035156 19.6875 -19.515625 C 21.4375 -18.003906 22.3125 -15.863281 22.3125 -13.09375 L 22.3125 0 L 17.640625 0 L 17.125 -3.4375 C 16.488281 -2.289062 15.601562 -1.34375 14.46875 -0.59375 C 13.34375 0.144531 11.894531 0.515625 10.125 0.515625 Z M 11.375 -3.78125 C 12.945312 -3.78125 14.164062 -4.289062 15.03125 -5.3125 C 15.90625 -6.34375 16.457031 -7.617188 16.6875 -9.140625 L 12.015625 -9.140625 C 10.554688 -9.140625 9.507812 -8.875 8.875 -8.34375 C 8.25 -7.8125 7.9375 -7.160156 7.9375 -6.390625 C 7.9375 -5.566406 8.25 -4.925781 8.875 -4.46875 C 9.507812 -4.007812 10.34375 -3.78125 11.375 -3.78125 Z M 11.375 -3.78125 "/></g></g></g></svg>