<svg xmlns="http://www.w3.org/2000/svg" xmlns:xlink="http://www.w3.org/1999/xlink" width="500" zoomAndPan="magnify" viewBox="0 0 375 374.999991" height="500" preserveAspectRatio="xMidYMid meet" version="1.0"><defs><g/><clipPath id="964f6fe5c7"><path d="M 80 193 L 88 193 L 88 200.734375 L 80 200.734375 Z M 80 193 " clip-rule="nonzero"/></clipPath><clipPath id="76d12e380c"><path d="M 90 193 L 98 193 L 98 200.734375 L 90 200.734375 Z M 90 193 " clip-rule="nonzero"/></clipPath><clipPath id="c590046e7a"><path d="M 164 137 L 325.753906 137 L 325.753906 200.734375 L 164 200.734375 Z M 164 137 " clip-rule="nonzero"/></clipPath><clipPath id="b21ed36295"><path d="M 277 191 L 287 191 L 287 200.734375 L 277 200.734375 Z M 277 191 " clip-rule="nonzero"/></clipPath><clipPath id="c4b1cbfd65"><path d="M 264 191 L 274 191 L 274 200.734375 L 264 200.734375 Z M 264 191 " clip-rule="nonzero"/></clipPath><clipPath id="a6ae898ac7"><path d="M 49.003906 151 L 191 151 L 191 200.734375 L 49.003906 200.734375 Z M 49.003906 151 " clip-rule="nonzero"/></clipPath><clipPath id="209d68fcde"><path d="M 115 112.234375 L 229 112.234375 L 229 156 L 115 156 Z M 115 112.234375 " clip-rule="nonzero"/></clipPath><clipPath id="eba60ab8eb"><path d="M 116 0.238281 L 141 0.238281 L 141 30 L 116 30 Z M 116 0.238281 " clip-rule="nonzero"/></clipPath><clipPath id="e6466c075d"><path d="M 171 0.238281 L 197 0.238281 L 197 30 L 171 30 Z M 171 0.238281 " clip-rule="nonzero"/></clipPath><clipPath id="f90b4f2908"><path d="M 260 0.238281 L 282 0.238281 L 282 31 L 260 31 Z M 260 0.238281 " clip-rule="nonzero"/></clipPath><clipPath id="bda624a0cd"><path d="M 286 0.238281 L 311 0.238281 L 311 30 L 286 30 Z M 286 0.238281 " clip-rule="nonzero"/></clipPath><clipPath id="9f8892a0e4"><rect x="0" width="313" y="0" height="41"/></clipPath><clipPath id="bc172d5d65"><path d="M 1 0.398438 L 16 0.398438 L 16 18 L 1 18 Z M 1 0.398438 " clip-rule="nonzero"/></clipPath><clipPath id="c96f911c96"><rect x="0" width="182" y="0" height="25"/></clipPath></defs><path fill="#000000" d="M 80.324219 184.140625 L 87.207031 184.140625 L 87.207031 191.023438 L 80.324219 191.023438 Z M 80.324219 184.140625 " fill-opacity="1" fill-rule="evenodd"/><path fill="#000000" d="M 90.292969 184.140625 L 97.175781 184.140625 L 97.175781 191.023438 L 90.292969 191.023438 Z M 90.292969 184.140625 " fill-opacity="1" fill-rule="evenodd"/><g clip-path="url(#964f6fe5c7)"><path fill="#000000" d="M 80.324219 193.695312 L 87.207031 193.695312 L 87.207031 200.578125 L 80.324219 200.578125 Z M 80.324219 193.695312 " fill-opacity="1" fill-rule="evenodd"/></g><g clip-path="url(#76d12e380c)"><path fill="#000000" d="M 90.292969 193.695312 L 97.175781 193.695312 L 97.175781 200.578125 L 90.292969 200.578125 Z M 90.292969 193.695312 " fill-opacity="1" fill-rule="evenodd"/></g><g clip-path="url(#c590046e7a)"><path fill="#000000" d="M 326.652344 200.578125 L 275.261719 137.320312 L 164.828125 161.472656 L 194.914062 200.578125 L 233.070312 200.578125 L 275.261719 148.65625 L 317.398438 200.578125 Z M 326.652344 200.578125 " fill-opacity="1" fill-rule="evenodd"/></g><path fill="#000000" d="M 277.222656 179.511719 L 286.0625 179.511719 L 286.0625 188.355469 L 277.222656 188.355469 Z M 277.222656 179.511719 " fill-opacity="1" fill-rule="evenodd"/><path fill="#000000" d="M 264.464844 179.511719 L 273.304688 179.511719 L 273.304688 188.355469 L 264.464844 188.355469 Z M 264.464844 179.511719 " fill-opacity="1" fill-rule="evenodd"/><g clip-path="url(#b21ed36295)"><path fill="#000000" d="M 277.222656 191.796875 L 286.0625 191.796875 L 286.0625 200.636719 L 277.222656 200.636719 Z M 277.222656 191.796875 " fill-opacity="1" fill-rule="evenodd"/></g><g clip-path="url(#c4b1cbfd65)"><path fill="#000000" d="M 264.464844 191.796875 L 273.304688 191.796875 L 273.304688 200.636719 L 264.464844 200.636719 Z M 264.464844 191.796875 " fill-opacity="1" fill-rule="evenodd"/></g><g clip-path="url(#a6ae898ac7)"><path fill="#000000" d="M 48.632812 200.578125 L 88.75 151.207031 L 161.917969 162.898438 L 190.34375 200.578125 L 121.625 200.578125 L 88.75 160.109375 L 55.816406 200.578125 Z M 48.632812 200.578125 " fill-opacity="1" fill-rule="evenodd"/></g><g clip-path="url(#209d68fcde)"><path fill="#000000" d="M 115.808594 151.148438 L 147.378906 112.335938 L 215.328125 127.351562 L 228.265625 144.027344 L 176.042969 155.539062 L 147.378906 120.230469 L 121.269531 152.332031 Z M 115.808594 151.148438 " fill-opacity="1" fill-rule="evenodd"/></g><path fill="#000000" d="M 139.84375 141.59375 L 145.957031 141.59375 L 145.957031 147.703125 L 139.84375 147.703125 Z M 139.84375 141.59375 " fill-opacity="1" fill-rule="evenodd"/><path fill="#000000" d="M 148.746094 141.59375 L 154.859375 141.59375 L 154.859375 147.703125 L 148.746094 147.703125 Z M 148.746094 141.59375 " fill-opacity="1" fill-rule="evenodd"/><path fill="#000000" d="M 139.84375 150.078125 L 145.957031 150.078125 L 145.957031 156.191406 L 139.84375 156.191406 Z M 139.84375 150.078125 " fill-opacity="1" fill-rule="evenodd"/><path fill="#000000" d="M 148.746094 150.078125 L 154.859375 150.078125 L 154.859375 156.191406 L 148.746094 156.191406 Z M 148.746094 150.078125 " fill-opacity="1" fill-rule="evenodd"/><g transform="matrix(1, 0, 0, 1, 31, 204)"><g clip-path="url(#9f8892a0e4)"><g fill="#000000" fill-opacity="1"><g transform="translate(1.196065, 29.811485)"><g><path d="M 8.859375 0 L 3.171875 0 L 3.171875 -28.359375 L 14.34375 -28.359375 C 15.925781 -28.359375 17.28125 -28.039062 18.40625 -27.40625 C 19.53125 -26.769531 20.421875 -25.9375 21.078125 -24.90625 C 21.742188 -23.875 22.191406 -22.726562 22.421875 -21.46875 C 22.648438 -20.207031 22.648438 -18.953125 22.421875 -17.703125 C 22.191406 -16.460938 21.738281 -15.328125 21.0625 -14.296875 C 20.394531 -13.265625 19.5 -12.429688 18.375 -11.796875 C 17.25 -11.160156 15.90625 -10.84375 14.34375 -10.84375 L 8.859375 -10.84375 Z M 8.859375 -16.359375 L 13.859375 -16.359375 C 14.628906 -16.359375 15.238281 -16.570312 15.6875 -17 C 16.132812 -17.425781 16.4375 -17.957031 16.59375 -18.59375 C 16.757812 -19.226562 16.757812 -19.863281 16.59375 -20.5 C 16.4375 -21.132812 16.132812 -21.660156 15.6875 -22.078125 C 15.238281 -22.503906 14.628906 -22.71875 13.859375 -22.71875 L 8.859375 -22.71875 Z M 8.859375 -16.359375 "/></g></g></g><g fill="#000000" fill-opacity="1"><g transform="translate(25.936326, 29.811485)"><g><path d="M 23.546875 -9.890625 C 23.546875 -7.953125 23.175781 -6.296875 22.4375 -4.921875 C 21.695312 -3.546875 20.71875 -2.445312 19.5 -1.625 C 18.28125 -0.800781 16.941406 -0.253906 15.484375 0.015625 C 14.035156 0.296875 12.570312 0.296875 11.09375 0.015625 C 9.625 -0.253906 8.28125 -0.800781 7.0625 -1.625 C 5.851562 -2.445312 4.875 -3.546875 4.125 -4.921875 C 3.382812 -6.296875 3.015625 -7.953125 3.015625 -9.890625 L 3.015625 -28.40625 L 8.703125 -28.40625 L 8.703125 -9.9375 C 8.703125 -8.738281 9.007812 -7.78125 9.625 -7.0625 C 10.25 -6.351562 11.019531 -5.878906 11.9375 -5.640625 C 12.851562 -5.398438 13.765625 -5.398438 14.671875 -5.640625 C 15.585938 -5.878906 16.351562 -6.351562 16.96875 -7.0625 C 17.59375 -7.78125 17.90625 -8.738281 17.90625 -9.9375 L 17.90625 -28.40625 L 23.546875 -28.40625 Z M 23.546875 -9.890625 "/></g></g></g><g fill="#000000" fill-opacity="1"><g transform="translate(53.376938, 29.811485)"><g><path d="M 17.3125 0 L 11.59375 -10.84375 L 8.859375 -10.84375 L 8.859375 0 L 3.171875 0 L 3.171875 -28.40625 L 14.375 -28.40625 C 16.070312 -28.40625 17.507812 -28.050781 18.6875 -27.34375 C 19.863281 -26.644531 20.78125 -25.734375 21.4375 -24.609375 C 22.101562 -23.484375 22.515625 -22.265625 22.671875 -20.953125 C 22.835938 -19.640625 22.738281 -18.351562 22.375 -17.09375 C 22.019531 -15.84375 21.410156 -14.734375 20.546875 -13.765625 C 19.691406 -12.796875 18.5625 -12.113281 17.15625 -11.71875 L 23.75 0 Z M 8.859375 -16.359375 L 13.859375 -16.359375 C 14.628906 -16.359375 15.242188 -16.570312 15.703125 -17 C 16.171875 -17.425781 16.484375 -17.957031 16.640625 -18.59375 C 16.796875 -19.226562 16.796875 -19.863281 16.640625 -20.5 C 16.484375 -21.132812 16.171875 -21.660156 15.703125 -22.078125 C 15.242188 -22.503906 14.628906 -22.71875 13.859375 -22.71875 L 8.859375 -22.71875 Z M 8.859375 -16.359375 "/></g></g></g><g fill="#000000" fill-opacity="1"><g transform="translate(78.514296, 29.811485)"><g><path d="M 11.875 0.59375 L 0.234375 -28.40625 L 6.640625 -28.40625 L 12.359375 -13.90625 L 17.90625 -28.125 L 18.1875 -28.125 L 23.75 -13.90625 L 29.46875 -28.40625 L 35.859375 -28.40625 L 24.265625 0.484375 L 23.234375 0.484375 L 18.03125 -12.109375 L 12.875 0.59375 Z M 11.875 0.59375 "/></g></g></g><g clip-path="url(#eba60ab8eb)"><g fill="#000000" fill-opacity="1"><g transform="translate(115.44586, 29.811485)"><g><path d="M 0.640625 0 L 12.59375 -29.4375 L 13.1875 -29.4375 L 25.140625 0 L 18.75 0 L 17.59375 -3.0625 L 8.1875 -3.0625 L 7.0625 0 Z M 10.25 -8.375 L 15.484375 -8.375 L 12.90625 -15.765625 Z M 10.25 -8.375 "/></g></g></g></g><g fill="#000000" fill-opacity="1"><g transform="translate(142.171667, 29.811485)"><g><path d="M 11.640625 -28.40625 C 13.992188 -28.40625 16.054688 -28.003906 17.828125 -27.203125 C 19.609375 -26.410156 21.085938 -25.335938 22.265625 -23.984375 C 23.441406 -22.640625 24.328125 -21.117188 24.921875 -19.421875 C 25.515625 -17.722656 25.8125 -15.976562 25.8125 -14.1875 C 25.8125 -12.40625 25.515625 -10.664062 24.921875 -8.96875 C 24.328125 -7.28125 23.441406 -5.757812 22.265625 -4.40625 C 21.085938 -3.0625 19.609375 -1.988281 17.828125 -1.1875 C 16.054688 -0.394531 13.992188 0 11.640625 0 L 3.171875 0 L 3.171875 -28.40625 Z M 11.640625 -22.71875 L 8.859375 -22.71875 L 8.859375 -5.6875 L 11.640625 -5.6875 C 13.222656 -5.6875 14.578125 -5.988281 15.703125 -6.59375 C 16.828125 -7.195312 17.726562 -8.007812 18.40625 -9.03125 C 19.082031 -10.050781 19.53125 -11.171875 19.75 -12.390625 C 19.976562 -13.609375 19.976562 -14.816406 19.75 -16.015625 C 19.53125 -17.222656 19.082031 -18.335938 18.40625 -19.359375 C 17.726562 -20.378906 16.828125 -21.191406 15.703125 -21.796875 C 14.578125 -22.410156 13.222656 -22.71875 11.640625 -22.71875 Z M 11.640625 -22.71875 "/></g></g></g><g clip-path="url(#e6466c075d)"><g fill="#000000" fill-opacity="1"><g transform="translate(170.922744, 29.811485)"><g><path d="M 0.640625 0 L 12.59375 -29.4375 L 13.1875 -29.4375 L 25.140625 0 L 18.75 0 L 17.59375 -3.0625 L 8.1875 -3.0625 L 7.0625 0 Z M 10.25 -8.375 L 15.484375 -8.375 L 12.90625 -15.765625 Z M 10.25 -8.375 "/></g></g></g></g><g fill="#000000" fill-opacity="1"><g transform="translate(197.648551, 29.811485)"><g><path d="M 3.171875 0 L 3.171875 -28.40625 L 8.859375 -28.40625 L 8.859375 -17.078125 L 16 -28.40625 L 22.640625 -28.40625 L 13.421875 -14.375 L 23.4375 0 L 16.40625 0 L 8.859375 -11.125 L 8.859375 0 Z M 3.171875 0 "/></g></g></g><g fill="#000000" fill-opacity="1"><g transform="translate(222.428521, 29.811485)"><g><path d="M 1.859375 -1.828125 L 2.578125 -7.78125 C 3.660156 -7.019531 4.738281 -6.472656 5.8125 -6.140625 C 6.882812 -5.804688 7.859375 -5.613281 8.734375 -5.5625 C 9.609375 -5.507812 10.257812 -5.492188 10.6875 -5.515625 C 11.53125 -5.566406 12.25 -5.863281 12.84375 -6.40625 C 13.445312 -6.957031 13.707031 -7.613281 13.625 -8.375 C 13.570312 -9.195312 13.265625 -9.820312 12.703125 -10.25 C 12.148438 -10.675781 11.476562 -11.019531 10.6875 -11.28125 C 9.195312 -11.832031 7.8125 -12.472656 6.53125 -13.203125 C 5.25 -13.929688 4.21875 -14.835938 3.4375 -15.921875 C 2.65625 -17.015625 2.265625 -18.351562 2.265625 -19.9375 C 2.265625 -21.53125 2.601562 -22.96875 3.28125 -24.25 C 3.957031 -25.53125 4.898438 -26.554688 6.109375 -27.328125 C 7.328125 -28.097656 8.71875 -28.519531 10.28125 -28.59375 C 11.03125 -28.644531 11.9375 -28.617188 13 -28.515625 C 14.070312 -28.410156 15.523438 -28.039062 17.359375 -27.40625 L 16.640625 -21.921875 C 15.078125 -22.554688 13.832031 -22.921875 12.90625 -23.015625 C 11.976562 -23.109375 11.289062 -23.140625 10.84375 -23.109375 C 9.832031 -23.054688 9.09375 -22.710938 8.625 -22.078125 C 8.164062 -21.441406 7.960938 -20.726562 8.015625 -19.9375 C 8.097656 -19.144531 8.441406 -18.539062 9.046875 -18.125 C 9.660156 -17.71875 10.378906 -17.367188 11.203125 -17.078125 C 12.679688 -16.546875 14.039062 -15.890625 15.28125 -15.109375 C 16.53125 -14.328125 17.53125 -13.382812 18.28125 -12.28125 C 19.039062 -11.1875 19.421875 -9.882812 19.421875 -8.375 C 19.421875 -6.8125 19.078125 -5.394531 18.390625 -4.125 C 17.703125 -2.851562 16.710938 -1.832031 15.421875 -1.0625 C 14.140625 -0.300781 12.613281 0.128906 10.84375 0.234375 C 10.3125 0.265625 9.585938 0.242188 8.671875 0.171875 C 7.765625 0.109375 6.726562 -0.0703125 5.5625 -0.375 C 4.394531 -0.675781 3.160156 -1.160156 1.859375 -1.828125 Z M 1.859375 -1.828125 "/></g></g></g><g fill="#000000" fill-opacity="1"><g transform="translate(244.230172, 29.811485)"><g><path d="M 8.859375 0 L 3.171875 0 L 3.171875 -28.40625 L 8.859375 -28.40625 Z M 8.859375 0 "/></g></g></g><g clip-path="url(#f90b4f2908)"><g fill="#000000" fill-opacity="1"><g transform="translate(257.096795, 29.811485)"><g><path d="M 8.859375 -15.453125 L 8.859375 0 L 3.171875 0 L 3.171875 -29 L 4.6875 -29 L 19.03125 -12.3125 L 19.03125 -28.359375 L 24.75 -28.359375 L 24.75 0.59375 L 23.234375 0.59375 Z M 8.859375 -15.453125 "/></g></g></g></g><g clip-path="url(#bda624a0cd)"><g fill="#000000" fill-opacity="1"><g transform="translate(285.847872, 29.811485)"><g><path d="M 0.640625 0 L 12.59375 -29.4375 L 13.1875 -29.4375 L 25.140625 0 L 18.75 0 L 17.59375 -3.0625 L 8.1875 -3.0625 L 7.0625 0 Z M 10.25 -8.375 L 15.484375 -8.375 L 12.90625 -15.765625 Z M 10.25 -8.375 "/></g></g></g></g></g></g><g transform="matrix(1, 0, 0, 1, 99, 236)"><g clip-path="url(#c96f911c96)"><g clip-path="url(#bc172d5d65)"><g fill="#000000" fill-opacity="1"><g transform="translate(1.31615, 17.99849)"><g><path d="M 0.375 0 L 7.3125 -17.078125 L 7.65625 -17.078125 L 14.59375 0 L 10.875 0 L 10.203125 -1.78125 L 4.75 -1.78125 L 4.109375 0 Z M 5.953125 -4.859375 L 8.984375 -4.859375 L 7.484375 -9.15625 Z M 5.953125 -4.859375 "/></g></g></g></g><g fill="#000000" fill-opacity="1"><g transform="translate(21.434387, 17.99849)"><g><path d="M 10.046875 0 L 6.734375 -6.296875 L 5.140625 -6.296875 L 5.140625 0 L 1.84375 0 L 1.84375 -16.484375 L 8.34375 -16.484375 C 9.320312 -16.484375 10.15625 -16.273438 10.84375 -15.859375 C 11.53125 -15.453125 12.0625 -14.921875 12.4375 -14.265625 C 12.820312 -13.617188 13.0625 -12.914062 13.15625 -12.15625 C 13.25 -11.394531 13.191406 -10.648438 12.984375 -9.921875 C 12.773438 -9.191406 12.421875 -8.546875 11.921875 -7.984375 C 11.421875 -7.421875 10.765625 -7.023438 9.953125 -6.796875 L 13.78125 0 Z M 5.140625 -9.5 L 8.046875 -9.5 C 8.492188 -9.5 8.847656 -9.617188 9.109375 -9.859375 C 9.378906 -10.109375 9.5625 -10.414062 9.65625 -10.78125 C 9.75 -11.15625 9.75 -11.523438 9.65625 -11.890625 C 9.5625 -12.265625 9.378906 -12.570312 9.109375 -12.8125 C 8.847656 -13.0625 8.492188 -13.1875 8.046875 -13.1875 L 5.140625 -13.1875 Z M 5.140625 -9.5 "/></g></g></g><g fill="#000000" fill-opacity="1"><g transform="translate(40.63092, 17.99849)"><g><path d="M 1.078125 -1.0625 L 1.5 -4.515625 C 2.125 -4.066406 2.75 -3.742188 3.375 -3.546875 C 4 -3.359375 4.5625 -3.25 5.0625 -3.21875 C 5.570312 -3.195312 5.953125 -3.191406 6.203125 -3.203125 C 6.691406 -3.234375 7.109375 -3.40625 7.453125 -3.71875 C 7.796875 -4.03125 7.945312 -4.410156 7.90625 -4.859375 C 7.875 -5.335938 7.695312 -5.695312 7.375 -5.9375 C 7.050781 -6.1875 6.660156 -6.390625 6.203125 -6.546875 C 5.335938 -6.867188 4.53125 -7.238281 3.78125 -7.65625 C 3.039062 -8.082031 2.441406 -8.609375 1.984375 -9.234375 C 1.535156 -9.867188 1.3125 -10.644531 1.3125 -11.5625 C 1.3125 -12.488281 1.503906 -13.320312 1.890625 -14.0625 C 2.285156 -14.8125 2.835938 -15.410156 3.546875 -15.859375 C 4.253906 -16.304688 5.0625 -16.550781 5.96875 -16.59375 C 6.394531 -16.625 6.921875 -16.609375 7.546875 -16.546875 C 8.171875 -16.484375 9.015625 -16.269531 10.078125 -15.90625 L 9.65625 -12.71875 C 8.75 -13.09375 8.023438 -13.304688 7.484375 -13.359375 C 6.953125 -13.410156 6.554688 -13.425781 6.296875 -13.40625 C 5.710938 -13.382812 5.285156 -13.1875 5.015625 -12.8125 C 4.742188 -12.445312 4.625 -12.03125 4.65625 -11.5625 C 4.695312 -11.101562 4.894531 -10.753906 5.25 -10.515625 C 5.601562 -10.273438 6.019531 -10.070312 6.5 -9.90625 C 7.363281 -9.601562 8.15625 -9.222656 8.875 -8.765625 C 9.59375 -8.316406 10.171875 -7.769531 10.609375 -7.125 C 11.046875 -6.488281 11.265625 -5.734375 11.265625 -4.859375 C 11.265625 -3.953125 11.066406 -3.128906 10.671875 -2.390625 C 10.273438 -1.660156 9.703125 -1.070312 8.953125 -0.625 C 8.210938 -0.175781 7.328125 0.078125 6.296875 0.140625 C 5.984375 0.148438 5.5625 0.132812 5.03125 0.09375 C 4.5 0.0625 3.894531 -0.0390625 3.21875 -0.21875 C 2.550781 -0.394531 1.835938 -0.675781 1.078125 -1.0625 Z M 1.078125 -1.0625 "/></g></g></g><g fill="#000000" fill-opacity="1"><g transform="translate(57.891897, 17.99849)"><g><path d="M 5.140625 0 L 1.84375 0 L 1.84375 -16.484375 L 5.140625 -16.484375 Z M 5.140625 0 "/></g></g></g><g fill="#000000" fill-opacity="1"><g transform="translate(69.968337, 17.99849)"><g><path d="M 7.859375 0 L 4.5625 0 L 4.5625 -13.1875 L 0.46875 -13.1875 L 0.46875 -16.453125 L 11.96875 -16.453125 L 11.96875 -13.1875 L 7.859375 -13.1875 Z M 7.859375 0 "/></g></g></g><g fill="#000000" fill-opacity="1"><g transform="translate(87.644083, 17.99849)"><g><path d="M 10.375 0 L 1.84375 0 L 1.84375 -16.484375 L 10.09375 -16.484375 L 10.09375 -13.1875 L 5.140625 -13.1875 L 5.140625 -9.890625 L 9.46875 -9.890625 L 9.46875 -6.59375 L 5.140625 -6.59375 L 5.140625 -3.296875 L 10.375 -3.296875 Z M 10.375 0 "/></g></g></g><g fill="#000000" fill-opacity="1"><g transform="translate(104.329, 17.99849)"><g><path d="M 1.84375 0 L 1.84375 -16.484375 L 5.140625 -16.484375 L 5.140625 -9.90625 L 9.28125 -16.484375 L 13.140625 -16.484375 L 7.796875 -8.34375 L 13.59375 0 L 9.515625 0 L 5.140625 -6.453125 L 5.140625 0 Z M 1.84375 0 "/></g></g></g><g fill="#000000" fill-opacity="1"><g transform="translate(123.318156, 17.99849)"><g><path d="M 7.859375 0 L 4.5625 0 L 4.5625 -13.1875 L 0.46875 -13.1875 L 0.46875 -16.453125 L 11.96875 -16.453125 L 11.96875 -13.1875 L 7.859375 -13.1875 Z M 7.859375 0 "/></g></g></g><g fill="#000000" fill-opacity="1"><g transform="translate(140.993902, 17.99849)"><g><path d="M 13.671875 -5.734375 C 13.671875 -4.617188 13.453125 -3.660156 13.015625 -2.859375 C 12.585938 -2.054688 12.019531 -1.414062 11.3125 -0.9375 C 10.601562 -0.46875 9.828125 -0.15625 8.984375 0 C 8.140625 0.164062 7.289062 0.164062 6.4375 0 C 5.582031 -0.15625 4.800781 -0.46875 4.09375 -0.9375 C 3.394531 -1.414062 2.828125 -2.054688 2.390625 -2.859375 C 1.960938 -3.660156 1.75 -4.617188 1.75 -5.734375 L 1.75 -16.484375 L 5.046875 -16.484375 L 5.046875 -5.765625 C 5.046875 -5.066406 5.222656 -4.507812 5.578125 -4.09375 C 5.941406 -3.6875 6.390625 -3.410156 6.921875 -3.265625 C 7.453125 -3.128906 7.984375 -3.128906 8.515625 -3.265625 C 9.046875 -3.410156 9.488281 -3.6875 9.84375 -4.09375 C 10.207031 -4.507812 10.390625 -5.066406 10.390625 -5.765625 L 10.390625 -16.484375 L 13.671875 -16.484375 Z M 13.671875 -5.734375 "/></g></g></g><g fill="#000000" fill-opacity="1"><g transform="translate(161.526896, 17.99849)"><g><path d="M 10.046875 0 L 6.734375 -6.296875 L 5.140625 -6.296875 L 5.140625 0 L 1.84375 0 L 1.84375 -16.484375 L 8.34375 -16.484375 C 9.320312 -16.484375 10.15625 -16.273438 10.84375 -15.859375 C 11.53125 -15.453125 12.0625 -14.921875 12.4375 -14.265625 C 12.820312 -13.617188 13.0625 -12.914062 13.15625 -12.15625 C 13.25 -11.394531 13.191406 -10.648438 12.984375 -9.921875 C 12.773438 -9.191406 12.421875 -8.546875 11.921875 -7.984375 C 11.421875 -7.421875 10.765625 -7.023438 9.953125 -6.796875 L 13.78125 0 Z M 5.140625 -9.5 L 8.046875 -9.5 C 8.492188 -9.5 8.847656 -9.617188 9.109375 -9.859375 C 9.378906 -10.109375 9.5625 -10.414062 9.65625 -10.78125 C 9.75 -11.15625 9.75 -11.523438 9.65625 -11.890625 C 9.5625 -12.265625 9.378906 -12.570312 9.109375 -12.8125 C 8.847656 -13.0625 8.492188 -13.1875 8.046875 -13.1875 L 5.140625 -13.1875 Z M 5.140625 -9.5 "/></g></g></g></g></g></svg>